<svg width="16" height="16" viewBox="0 0 16 16" fill="none" xmlns="http://www.w3.org/2000/svg">
<path d="M8 0C3.6 0 0 3.6 0 8C0 12.4 3.6 16 8 16C10.7333 16 13.0667 14.6667 14.5333 12.6L13.4667 11.8C12.2667 13.5333 10.2667 14.6667 8 14.6667C4.33333 14.6667 1.33333 11.6667 1.33333 8C1.33333 4.33333 4.33333 1.33333 8 1.33333C10.2667 1.33333 12.2667 2.46667 13.4667 4.2L14.5333 3.4C13.0667 1.33333 10.7333 0 8 0ZM12.8667 4.86667L11.9333 5.8L13.4667 7.33333H5.33333V8.66667H13.4667L11.9333 10.2L12.8667 11.1333L15.5333 8.46667L16 8L15.5333 7.53333L12.8667 4.86667Z" fill="#4A5559"/>
</svg>
