<svg width="145" height="30" viewBox="0 0 145 30" fill="none" xmlns="http://www.w3.org/2000/svg">
<path d="M3.17747 25.9848H12.4283V29.1978H0V0.0808105H3.17747V25.9848Z" fill="#2D71C0"/>
<path d="M20.6736 0.0804443H17.4559V29.1974H20.6736V0.0804443Z" fill="#2D71C0"/>
<path d="M26.4253 9.67899H29.643V29.1974H26.4253V9.67899ZM37.7677 18.0325V26.0648L26.5057 0.0804443H29.9245L37.7677 18.0325ZM39.2961 0.0804443H42.5138V29.1974H39.2961V0.0804443Z" fill="#2D71C0"/>
<path d="M47.8632 0.0804443H51.0809V29.1974H47.8632V0.0804443ZM52.5691 14.9V9.51835L59.4871 0.0804443H63.469L52.5691 14.9ZM62.9059 29.1974H59.4871L53.8562 16.1851H57.275L62.9059 29.1974Z" fill="#2D71C0"/>
<path d="M65.4401 0.0401611H80.0001V3.25307H65.4401V0.0401611ZM71.1113 4.89968H74.3289V29.1973H71.1113V4.89968Z" fill="#2D71C0"/>
<path d="M84.2232 0.0803224H87.4007V29.1973H84.2232V0.0803224ZM88.9291 3.25307H99.8692V0.0401611H88.9291V3.25307ZM88.9291 16.2252H95.5656V13.0524H88.9291V16.2252ZM88.9291 29.1973H99.8692V26.0245H88.9291V29.1973Z" fill="#2D71C0"/>
<path d="M104.414 0.0803226H107.632V29.1973H104.414V0.0803226ZM109.08 16.2252V13.0524H113.464C116.159 13.0524 118.371 10.8436 118.371 8.11258C118.371 5.42178 116.199 3.2129 113.464 3.2129H109.08V0H113.464C117.888 0 121.548 3.65468 121.548 8.07242C121.548 12.5303 117.888 16.1448 113.464 16.1448H109.08V16.2252ZM117.607 17.189L122.876 29.1973H119.336L114.148 17.189H117.607V17.189Z" fill="#2D71C0"/>
<path d="M132.81 0.0804443H137.798L144.796 29.1974H141.498L135.264 3.25319L129.07 29.1974H125.812L132.81 0.0804443ZM132.167 19.9603H138.441V23.1732H132.167V19.9603Z" fill="#2D71C0"/>
</svg>
